<svg width="174" height="40" viewBox="0 0 174 40" fill="none" xmlns="http://www.w3.org/2000/svg">
<g filter="url(#filter0_d_1773_20681)">
<path d="M20 0C11.2 0 4 7.2 4 16C4 24.8 11.2 32 20 32C28.8 32 36 24.8 36 16C36 7.2 28.8 0 20 0ZM28.1333 17.3333C28.4 19.7333 29.3333 22 30.6667 24C30.1333 24.6667 29.4667 25.3333 28.8 26C26.8 23.4667 25.6 20.5333 25.3333 17.3333H21.3333V29.2C20.9333 29.2 20.4 29.3333 20 29.3333C19.6 29.3333 19.0667 29.3333 18.6667 29.2V17.3333H14.6667C14.4 20.5333 13.2 23.4667 11.2 26C10.5333 25.3333 9.86667 24.6667 9.33333 24C10.8 22 11.7333 19.7333 11.8667 17.3333H6.8C6.66667 16.9333 6.66667 16.4 6.66667 16C6.66667 15.6 6.66667 15.0667 6.8 14.6667H12C11.7333 12.2667 10.8 10 9.33333 8C9.86667 7.33333 10.5333 6.66667 11.2 6C13.2 8.53333 14.4 11.4667 14.6667 14.6667H18.6667V2.8C19.0667 2.66667 19.6 2.66667 20 2.66667C20.4 2.66667 20.9333 2.66667 21.3333 2.8V14.6667H25.3333C25.6 11.4667 26.8 8.53333 28.8 6C29.4667 6.66667 30.1333 7.33333 30.6667 8C29.2 10 28.2667 12.2667 28.1333 14.6667H33.3333C33.3333 15.0667 33.4667 15.6 33.4667 16C33.4667 16.4 33.4667 16.9333 33.3333 17.3333H28.1333Z" fill="#FCFCFD"/>
<path d="M56 7.248V9.96H49.016V14.256H54.368V16.92H49.016V24H45.656V7.248H56ZM59.6066 9.12C59.0146 9.12 58.5186 8.936 58.1186 8.568C57.7346 8.184 57.5426 7.712 57.5426 7.152C57.5426 6.592 57.7346 6.128 58.1186 5.76C58.5186 5.376 59.0146 5.184 59.6066 5.184C60.1986 5.184 60.6866 5.376 61.0706 5.76C61.4706 6.128 61.6706 6.592 61.6706 7.152C61.6706 7.712 61.4706 8.184 61.0706 8.568C60.6866 8.936 60.1986 9.12 59.6066 9.12ZM61.2626 10.704V24H57.9026V10.704H61.2626ZM68.0143 13.464V19.896C68.0143 20.344 68.1183 20.672 68.3263 20.88C68.5503 21.072 68.9183 21.168 69.4303 21.168H70.9903V24H68.8783C66.0463 24 64.6303 22.624 64.6303 19.872V13.464H63.0463V10.704H64.6303V7.416H68.0143V10.704H70.9903V13.464H68.0143ZM80.2949 10.512C81.8789 10.512 83.1589 11.016 84.1349 12.024C85.1109 13.016 85.5989 14.408 85.5989 16.2V24H82.2389V16.656C82.2389 15.6 81.9749 14.792 81.4469 14.232C80.9189 13.656 80.1989 13.368 79.2869 13.368C78.3589 13.368 77.6229 13.656 77.0789 14.232C76.5509 14.792 76.2869 15.6 76.2869 16.656V24H72.9269V10.704H76.2869V12.36C76.7349 11.784 77.3029 11.336 77.9909 11.016C78.6949 10.68 79.4629 10.512 80.2949 10.512ZM100.674 17.064C100.674 17.544 100.642 17.976 100.578 18.36H90.8581C90.9381 19.32 91.2741 20.072 91.8661 20.616C92.4581 21.16 93.1861 21.432 94.0501 21.432C95.2981 21.432 96.1861 20.896 96.7141 19.824H100.338C99.9541 21.104 99.2181 22.16 98.1301 22.992C97.0421 23.808 95.7061 24.216 94.1221 24.216C92.8421 24.216 91.6901 23.936 90.6661 23.376C89.6581 22.8 88.8661 21.992 88.2901 20.952C87.7301 19.912 87.4501 18.712 87.4501 17.352C87.4501 15.976 87.7301 14.768 88.2901 13.728C88.8501 12.688 89.6341 11.888 90.6421 11.328C91.6501 10.768 92.8101 10.488 94.1221 10.488C95.3861 10.488 96.5141 10.76 97.5061 11.304C98.5141 11.848 99.2901 12.624 99.8341 13.632C100.394 14.624 100.674 15.768 100.674 17.064ZM97.1941 16.104C97.1781 15.24 96.8661 14.552 96.2581 14.04C95.6501 13.512 94.9061 13.248 94.0261 13.248C93.1941 13.248 92.4901 13.504 91.9141 14.016C91.3541 14.512 91.0101 15.208 90.8821 16.104H97.1941ZM107.735 24.216C106.647 24.216 105.671 24.024 104.807 23.64C103.943 23.24 103.255 22.704 102.743 22.032C102.247 21.36 101.975 20.616 101.927 19.8H105.311C105.375 20.312 105.623 20.736 106.055 21.072C106.503 21.408 107.055 21.576 107.711 21.576C108.351 21.576 108.847 21.448 109.199 21.192C109.567 20.936 109.751 20.608 109.751 20.208C109.751 19.776 109.527 19.456 109.079 19.248C108.647 19.024 107.951 18.784 106.991 18.528C105.999 18.288 105.183 18.04 104.543 17.784C103.919 17.528 103.375 17.136 102.911 16.608C102.463 16.08 102.239 15.368 102.239 14.472C102.239 13.736 102.447 13.064 102.863 12.456C103.295 11.848 103.903 11.368 104.687 11.016C105.487 10.664 106.423 10.488 107.495 10.488C109.079 10.488 110.343 10.888 111.287 11.688C112.231 12.472 112.751 13.536 112.847 14.88H109.631C109.583 14.352 109.359 13.936 108.959 13.632C108.575 13.312 108.055 13.152 107.399 13.152C106.791 13.152 106.319 13.264 105.983 13.488C105.663 13.712 105.503 14.024 105.503 14.424C105.503 14.872 105.727 15.216 106.175 15.456C106.623 15.68 107.319 15.912 108.263 16.152C109.223 16.392 110.015 16.64 110.639 16.896C111.263 17.152 111.799 17.552 112.247 18.096C112.711 18.624 112.951 19.328 112.967 20.208C112.967 20.976 112.751 21.664 112.319 22.272C111.903 22.88 111.295 23.36 110.495 23.712C109.711 24.048 108.791 24.216 107.735 24.216ZM120.333 24.216C119.245 24.216 118.269 24.024 117.405 23.64C116.541 23.24 115.853 22.704 115.341 22.032C114.845 21.36 114.573 20.616 114.525 19.8H117.909C117.973 20.312 118.221 20.736 118.653 21.072C119.101 21.408 119.653 21.576 120.309 21.576C120.949 21.576 121.445 21.448 121.797 21.192C122.165 20.936 122.349 20.608 122.349 20.208C122.349 19.776 122.125 19.456 121.677 19.248C121.245 19.024 120.549 18.784 119.589 18.528C118.597 18.288 117.781 18.04 117.141 17.784C116.517 17.528 115.973 17.136 115.509 16.608C115.061 16.08 114.837 15.368 114.837 14.472C114.837 13.736 115.045 13.064 115.461 12.456C115.893 11.848 116.501 11.368 117.285 11.016C118.085 10.664 119.021 10.488 120.093 10.488C121.677 10.488 122.941 10.888 123.885 11.688C124.829 12.472 125.349 13.536 125.445 14.88H122.229C122.181 14.352 121.957 13.936 121.557 13.632C121.173 13.312 120.653 13.152 119.997 13.152C119.389 13.152 118.917 13.264 118.581 13.488C118.261 13.712 118.101 14.024 118.101 14.424C118.101 14.872 118.325 15.216 118.773 15.456C119.221 15.68 119.917 15.912 120.861 16.152C121.821 16.392 122.613 16.64 123.237 16.896C123.861 17.152 124.397 17.552 124.845 18.096C125.309 18.624 125.549 19.328 125.565 20.208C125.565 20.976 125.349 21.664 124.917 22.272C124.501 22.88 123.893 23.36 123.093 23.712C122.309 24.048 121.389 24.216 120.333 24.216ZM145.298 12.432C145.298 13.328 145.082 14.168 144.65 14.952C144.234 15.736 143.57 16.368 142.658 16.848C141.762 17.328 140.626 17.568 139.25 17.568H136.442V24H133.082V7.248H139.25C140.546 7.248 141.65 7.472 142.562 7.92C143.474 8.368 144.154 8.984 144.602 9.768C145.066 10.552 145.298 11.44 145.298 12.432ZM139.106 14.856C140.034 14.856 140.722 14.648 141.17 14.232C141.618 13.8 141.842 13.2 141.842 12.432C141.842 10.8 140.93 9.984 139.106 9.984H136.442V14.856H139.106ZM150.563 12.768C150.995 12.064 151.555 11.512 152.243 11.112C152.947 10.712 153.747 10.512 154.643 10.512V14.04H153.755C152.699 14.04 151.899 14.288 151.355 14.784C150.827 15.28 150.563 16.144 150.563 17.376V24H147.203V10.704H150.563V12.768ZM162.33 24.216C161.05 24.216 159.898 23.936 158.874 23.376C157.85 22.8 157.042 21.992 156.45 20.952C155.874 19.912 155.586 18.712 155.586 17.352C155.586 15.992 155.882 14.792 156.474 13.752C157.082 12.712 157.906 11.912 158.946 11.352C159.986 10.776 161.146 10.488 162.426 10.488C163.706 10.488 164.866 10.776 165.906 11.352C166.946 11.912 167.762 12.712 168.354 13.752C168.962 14.792 169.266 15.992 169.266 17.352C169.266 18.712 168.954 19.912 168.33 20.952C167.722 21.992 166.89 22.8 165.834 23.376C164.794 23.936 163.626 24.216 162.33 24.216ZM162.33 21.288C162.938 21.288 163.506 21.144 164.034 20.856C164.578 20.552 165.01 20.104 165.33 19.512C165.65 18.92 165.81 18.2 165.81 17.352C165.81 16.088 165.474 15.12 164.802 14.448C164.146 13.76 163.338 13.416 162.378 13.416C161.418 13.416 160.61 13.76 159.954 14.448C159.314 15.12 158.994 16.088 158.994 17.352C158.994 18.616 159.306 19.592 159.93 20.28C160.57 20.952 161.37 21.288 162.33 21.288Z" fill="#F4F5F6"/>
</g>
<defs>
<filter id="filter0_d_1773_20681" x="0" y="0" width="175" height="40" filterUnits="userSpaceOnUse" color-interpolation-filters="sRGB">
<feFlood flood-opacity="0" result="BackgroundImageFix"/>
<feColorMatrix in="SourceAlpha" type="matrix" values="0 0 0 0 0 0 0 0 0 0 0 0 0 0 0 0 0 0 127 0" result="hardAlpha"/>
<feOffset dy="4"/>
<feGaussianBlur stdDeviation="2"/>
<feComposite in2="hardAlpha" operator="out"/>
<feColorMatrix type="matrix" values="0 0 0 0 0 0 0 0 0 0 0 0 0 0 0 0 0 0 0.25 0"/>
<feBlend mode="normal" in2="BackgroundImageFix" result="effect1_dropShadow_1773_20681"/>
<feBlend mode="normal" in="SourceGraphic" in2="effect1_dropShadow_1773_20681" result="shape"/>
</filter>
</defs>
</svg>
